<svg width="40" height="40" viewBox="0 0 40 40" fill="none" xmlns="http://www.w3.org/2000/svg">
  <circle cx="20" cy="20" r="20" fill="#2563EB"/>
  <path d="M12 20C12 15.5817 15.5817 12 20 12C22.0822 12 23.9896 12.7234 25.4641 13.9271L23.5359 15.8553C22.5896 15.0766 21.3578 14.6 20 14.6C16.9117 14.6 14.4 17.1117 14.4 20C14.4 22.8883 16.9117 25.4 20 25.4C22.4183 25.4 24.5104 23.8766 25.2891 21.8H22.6V19.2H28V20C28 24.4183 24.4183 28 20 28C15.5817 28 12 24.4183 12 20Z" fill="white"/>
  <path d="M26 16L28 14L30 16L28 18L26 16Z" fill="white"/>
</svg>
